<svg xmlns="http://www.w3.org/2000/svg" width="24" height="24" fill="none" viewBox="0 0 24 24"><g clip-path="url(#clip0)"><path stroke="currentColor" stroke-linecap="square" stroke-miterlimit="10" stroke-width="2" d="M17.5 15.5C19.5 13.5 19.5 10.4 17.5 8.40002"/><path stroke="currentColor" stroke-linecap="square" stroke-miterlimit="10" stroke-width="2" d="M20.4004 18.4C23.9004 14.9 23.9004 9.20001 20.4004 5.70001"/><path stroke="currentColor" stroke-linecap="square" stroke-miterlimit="10" stroke-width="2" d="M6.5 15.5C4.5 13.5 4.5 10.4 6.5 8.40002"/><path stroke="currentColor" stroke-linecap="square" stroke-miterlimit="10" stroke-width="2" d="M3.59961 18.4C0.0996094 14.9 0.0996094 9.20001 3.59961 5.70001"/><path stroke="currentColor" stroke-linecap="square" stroke-miterlimit="10" stroke-width="2" d="M12 14C13.1046 14 14 13.1046 14 12C14 10.8954 13.1046 10 12 10C10.8954 10 10 10.8954 10 12C10 13.1046 10.8954 14 12 14Z"/></g></svg>